<svg width="103" height="27" viewBox="0 0 103 27" fill="none" xmlns="http://www.w3.org/2000/svg">
<g filter="url(#filter0_d_23_4452)">
<path d="M9.80859 18H6.05859L6.08203 15.0469H9.80859C10.6602 15.0469 11.3789 14.8516 11.9648 14.4609C12.5508 14.0625 12.9961 13.4766 13.3008 12.7031C13.6055 11.9219 13.7578 10.9727 13.7578 9.85547V9.07031C13.7578 8.22656 13.6719 7.48438 13.5 6.84375C13.3281 6.19531 13.0742 5.65234 12.7383 5.21484C12.4023 4.77734 11.9844 4.44922 11.4844 4.23047C10.9922 4.01172 10.4258 3.90234 9.78516 3.90234H5.98828V0.9375H9.78516C10.9414 0.9375 11.9961 1.13281 12.9492 1.52344C13.9102 1.91406 14.7383 2.47266 15.4336 3.19922C16.1367 3.92578 16.6797 4.78516 17.0625 5.77734C17.4453 6.76953 17.6367 7.875 17.6367 9.09375V9.85547C17.6367 11.0664 17.4453 12.1719 17.0625 13.1719C16.6797 14.1641 16.1367 15.0234 15.4336 15.75C14.7383 16.4688 13.9141 17.0234 12.9609 17.4141C12.0078 17.8047 10.957 18 9.80859 18ZM8.22656 0.9375V18H4.40625V0.9375H8.22656ZM29.3086 0.9375H33.1289V12.1406C33.1289 13.4688 32.8477 14.5859 32.2852 15.4922C31.7305 16.3984 30.957 17.082 29.9648 17.543C28.9727 18.0039 27.8242 18.2344 26.5195 18.2344C25.207 18.2344 24.0508 18.0039 23.0508 17.543C22.0586 17.082 21.2773 16.3984 20.707 15.4922C20.1445 14.5859 19.8633 13.4688 19.8633 12.1406V0.9375H23.6953V12.1406C23.6953 12.875 23.8047 13.4766 24.0234 13.9453C24.25 14.4062 24.5742 14.7461 24.9961 14.9648C25.418 15.1758 25.9258 15.2812 26.5195 15.2812C27.1133 15.2812 27.6172 15.1758 28.0312 14.9648C28.4531 14.7461 28.7695 14.4062 28.9805 13.9453C29.1992 13.4766 29.3086 12.875 29.3086 12.1406V0.9375ZM47.4609 15.0469V18H38.3789V15.0469H47.4609ZM39.6797 0.9375V18H35.8594V0.9375H39.6797ZM46.2891 7.80469V10.6641H38.3789V7.80469H46.2891ZM47.4727 0.9375V3.90234H38.3789V0.9375H47.4727Z" fill="#FF7F27"/>
<path d="M58.1836 13.5C58.1836 13.2109 58.1406 12.9531 58.0547 12.7266C57.9688 12.4922 57.8125 12.2773 57.5859 12.082C57.3594 11.8867 57.0391 11.6914 56.625 11.4961C56.2109 11.293 55.668 11.0859 54.9961 10.875C54.2305 10.625 53.5 10.3438 52.8047 10.0312C52.1172 9.71094 51.5039 9.33984 50.9648 8.91797C50.4258 8.49609 50 8.00391 49.6875 7.44141C49.3828 6.87891 49.2305 6.22266 49.2305 5.47266C49.2305 4.74609 49.3906 4.08984 49.7109 3.50391C50.0312 2.91797 50.4805 2.41797 51.0586 2.00391C51.6367 1.58203 52.3164 1.26172 53.0977 1.04297C53.8789 0.816406 54.7383 0.703125 55.6758 0.703125C56.9258 0.703125 58.0234 0.925781 58.9688 1.37109C59.9219 1.80859 60.6641 2.42578 61.1953 3.22266C61.7266 4.01172 61.9922 4.92969 61.9922 5.97656H58.1953C58.1953 5.51562 58.0977 5.10938 57.9023 4.75781C57.7148 4.39844 57.4258 4.11719 57.0352 3.91406C56.6523 3.71094 56.1719 3.60938 55.5938 3.60938C55.0312 3.60938 54.5586 3.69531 54.1758 3.86719C53.8008 4.03125 53.5156 4.25781 53.3203 4.54688C53.1328 4.83594 53.0391 5.15234 53.0391 5.49609C53.0391 5.76953 53.1094 6.01953 53.25 6.24609C53.3984 6.46484 53.6094 6.67188 53.8828 6.86719C54.1641 7.05469 54.5078 7.23438 54.9141 7.40625C55.3203 7.57812 55.7852 7.74219 56.3086 7.89844C57.2227 8.1875 58.0312 8.50781 58.7344 8.85938C59.4453 9.21094 60.043 9.60938 60.5273 10.0547C61.0117 10.5 61.375 11.0039 61.6172 11.5664C61.8672 12.1289 61.9922 12.7656 61.9922 13.4766C61.9922 14.2344 61.8438 14.9062 61.5469 15.4922C61.2578 16.0781 60.8359 16.5781 60.2812 16.9922C59.7344 17.3984 59.0781 17.707 58.3125 17.918C57.5469 18.1289 56.6914 18.2344 55.7461 18.2344C54.8867 18.2344 54.0391 18.125 53.2031 17.9062C52.3672 17.6797 51.6094 17.3359 50.9297 16.875C50.2578 16.4141 49.7188 15.8281 49.3125 15.1172C48.9141 14.3984 48.7148 13.5469 48.7148 12.5625H52.5352C52.5352 13.0781 52.6094 13.5156 52.7578 13.875C52.9062 14.2266 53.1172 14.5117 53.3906 14.7305C53.6719 14.9492 54.0117 15.1055 54.4102 15.1992C54.8086 15.293 55.2539 15.3398 55.7461 15.3398C56.3164 15.3398 56.7773 15.2617 57.1289 15.1055C57.4883 14.9414 57.7539 14.7188 57.9258 14.4375C58.0977 14.1562 58.1836 13.8438 58.1836 13.5ZM68.3086 0.9375V18H64.5V0.9375H68.3086ZM75.2109 0.9375V18H71.3906V0.9375H75.2109ZM81.9258 8.13281V11.0859H74.1445V8.13281H81.9258ZM82.6758 0.9375V3.90234H74.1445V0.9375H82.6758ZM87.2695 0.9375L90.6094 8.53125L93.9727 0.9375H98.0977L92.5547 11.8359V18H88.6758V11.8359L83.1211 0.9375H87.2695Z" fill="black"/>
</g>
<defs>
<filter id="filter0_d_23_4452" x="0.40625" y="0.703125" width="101.691" height="25.5312" filterUnits="userSpaceOnUse" color-interpolation-filters="sRGB">
<feFlood flood-opacity="0" result="BackgroundImageFix"/>
<feColorMatrix in="SourceAlpha" type="matrix" values="0 0 0 0 0 0 0 0 0 0 0 0 0 0 0 0 0 0 127 0" result="hardAlpha"/>
<feOffset dy="4"/>
<feGaussianBlur stdDeviation="2"/>
<feComposite in2="hardAlpha" operator="out"/>
<feColorMatrix type="matrix" values="0 0 0 0 0 0 0 0 0 0 0 0 0 0 0 0 0 0 0.25 0"/>
<feBlend mode="normal" in2="BackgroundImageFix" result="effect1_dropShadow_23_4452"/>
<feBlend mode="normal" in="SourceGraphic" in2="effect1_dropShadow_23_4452" result="shape"/>
</filter>
</defs>
</svg>
