<svg width="86" height="86" viewBox="0 0 86 86" fill="none" xmlns="http://www.w3.org/2000/svg">
<g filter="url(#filter0_d_22_2579)">
<rect x="20" y="14" width="46" height="46" rx="11" fill="url(#paint0_linear_22_2579)"/>
</g>
<path d="M28.7987 34.9927V35.0262C28.7987 35.0429 28.7987 35.0764 28.782 35.0931V35.1098C28.782 35.1265 28.782 35.1433 28.782 35.16V35.1934V35.2102V35.2269V35.2436C28.782 35.2938 28.7653 35.344 28.7653 35.3942C28.7653 35.4444 28.7485 35.4778 28.7485 35.528C28.7485 35.5447 28.7485 35.5614 28.7485 35.5782C28.7485 35.6284 28.7318 35.6785 28.7318 35.7287C28.7318 35.7622 28.7318 35.8124 28.7151 35.8458V35.8793C28.7151 35.896 28.7151 35.9127 28.7151 35.9294C28.7151 35.9462 28.7151 35.9629 28.7151 35.9796C28.7151 35.9964 28.7151 35.9964 28.7151 36.0131C28.7151 36.0298 28.7151 36.0298 28.7151 36.0465C28.7151 36.0633 28.7151 36.08 28.7151 36.0967V36.1134C28.7151 36.1636 28.6984 36.2305 28.6984 36.2807C28.6984 36.3142 28.6984 36.3309 28.6984 36.3644C28.6984 36.3978 28.6984 36.4145 28.6984 36.448C28.6984 36.448 28.6984 36.448 28.6984 36.4647V36.4814V36.4982V36.5149C28.6984 36.5484 28.6984 36.5818 28.6984 36.6153C28.6984 36.632 28.6984 36.6487 28.6984 36.6487C28.6984 36.7156 28.6984 36.7658 28.6984 36.816C28.6984 36.8327 28.6984 36.8327 28.6984 36.8494V36.8662C28.6984 36.9164 28.6984 36.9665 28.6984 37V37.0334V37.0502V37.1004C28.6984 37.1171 28.6984 37.1338 28.6984 37.1505C28.6984 37.1673 28.6984 37.1673 28.6984 37.184C28.6984 37.2007 28.6984 37.2007 28.6984 37.2174C28.6984 37.2342 28.6984 37.2509 28.6984 37.2509V37.3011V37.3345C28.7318 40.0778 29.8358 42.6538 31.7929 44.5774C33.75 46.5011 36.3427 47.5716 39.1027 47.5716C39.5376 47.5716 39.9725 47.5382 40.4075 47.488C40.6082 47.4713 40.7922 47.4378 40.9929 47.4044C39.5711 46.5513 38.3333 45.3971 37.3631 44.0087C37.0118 43.5069 36.7107 42.9884 36.4431 42.4364C36.3762 42.3193 36.326 42.1854 36.2758 42.0684C36.2758 42.0516 36.2591 42.0349 36.2591 42.0349C35.59 40.5127 35.2387 38.8734 35.2387 37.184C35.2387 34.7251 35.9747 32.3665 37.3798 30.3425C37.6976 29.8742 38.0489 29.4393 38.4336 29.0378C39.6715 27.7164 41.1769 26.6793 42.8831 26.0269C43.4016 25.8262 43.9202 25.6589 44.4555 25.5418C45.342 25.3244 46.262 25.224 47.1987 25.224C49.3733 25.224 51.4642 25.8094 53.2875 26.88C53.2707 26.8633 53.254 26.8465 53.2373 26.8298C53.2205 26.8131 53.1871 26.7796 53.1704 26.7629L53.1536 26.7462C53.1369 26.7294 53.1035 26.7127 53.0867 26.6793C53.07 26.6625 53.0365 26.6458 53.0198 26.6124C53.0198 26.6124 53.0198 26.6124 53.0031 26.5956C52.9696 26.5789 52.9529 26.5454 52.9195 26.5287L52.886 26.4953L52.8693 26.4785C52.8358 26.4451 52.8024 26.4116 52.7522 26.3782C52.702 26.3447 52.6685 26.3113 52.6351 26.2778C52.6184 26.2611 52.6016 26.2611 52.6016 26.2444C52.5682 26.2276 52.5515 26.1942 52.518 26.1774L52.4678 26.1273L52.4344 26.0938L52.4176 26.0771L52.4009 26.0604C52.3675 26.0269 52.334 26.0102 52.3005 25.9767C52.2838 25.96 52.2504 25.9433 52.2336 25.9098C52.15 25.8429 52.0664 25.776 51.9995 25.7258C51.9827 25.7091 51.9493 25.6924 51.9325 25.6756L51.8991 25.6589L51.8824 25.6422C51.8824 25.6422 51.8824 25.6422 51.8656 25.6422L51.8155 25.6087L51.7987 25.592L51.7318 25.5418L51.7151 25.5251C51.6984 25.5084 51.6984 25.5084 51.6816 25.4916L51.6649 25.4749C51.6482 25.4582 51.6147 25.4414 51.598 25.4247L51.5813 25.408C51.5144 25.3578 51.4642 25.3244 51.3973 25.2742C51.3638 25.2574 51.3471 25.2407 51.3136 25.224L51.2969 25.2073C51.2635 25.1738 51.2133 25.1571 51.1798 25.1236C51.1631 25.1236 51.1631 25.1069 51.1464 25.1069C51.1129 25.0902 51.0795 25.0734 51.0627 25.0567C51.0125 25.0233 50.9791 25.0065 50.9289 24.9731C50.8787 24.9396 50.8453 24.9229 50.7951 24.8894L50.7282 24.8393C50.7115 24.8393 50.7115 24.8225 50.6947 24.8225C50.678 24.8225 50.6613 24.8058 50.6445 24.8058C50.6278 24.8058 50.6278 24.7891 50.6111 24.7891C50.5776 24.7724 50.5442 24.7556 50.5107 24.7389L50.494 24.7222C50.4773 24.7222 50.4773 24.7054 50.4605 24.7054C50.4271 24.6887 50.3936 24.672 50.3769 24.6553C50.3769 24.6553 50.3769 24.6553 50.3602 24.6553C50.1595 24.5382 49.942 24.4378 49.7413 24.3207H49.7245C49.6744 24.304 49.6242 24.2705 49.5907 24.2538L49.4736 24.1869C49.4736 24.1869 49.4736 24.1869 49.4569 24.1869C49.3064 24.12 49.1725 24.0531 49.0387 24.0029C49.0053 23.9862 48.9718 23.9694 48.9384 23.9694H48.9216H48.9049L48.8547 23.9527C48.838 23.9527 48.8213 23.936 48.7878 23.936C48.7711 23.936 48.7711 23.936 48.7544 23.9193C48.6205 23.8691 48.5035 23.8189 48.4031 23.7854L48.3362 23.7687H48.3195L48.2525 23.752C48.0685 23.6851 47.9013 23.6182 47.7005 23.568C47.7005 23.568 47.7005 23.568 47.6838 23.568C47.6504 23.5513 47.6169 23.5513 47.5835 23.5345C47.55 23.5178 47.5165 23.5178 47.4831 23.5011C47.4664 23.5011 47.4329 23.4844 47.4162 23.4844C47.3325 23.4676 47.2656 23.4342 47.182 23.4174C47.1653 23.4174 47.1653 23.4174 47.1485 23.4174C47.1318 23.4174 47.1151 23.4007 47.0984 23.4007H47.0816H47.0649C46.9144 23.3673 46.7638 23.3171 46.5965 23.2836C46.5129 23.2669 46.4125 23.2502 46.3289 23.2167C46.1784 23.1833 46.0111 23.1498 45.8605 23.1164C45.8104 23.0996 45.7435 23.0996 45.6933 23.0829C45.6431 23.0662 45.5762 23.0662 45.526 23.0494C45.4925 23.0494 45.4758 23.0494 45.4424 23.0327C45.4089 23.0327 45.3755 23.016 45.342 23.016C45.1747 22.9993 45.0075 22.9658 44.8402 22.9491C44.5224 22.9156 44.1878 22.8989 43.87 22.8822C43.686 22.8822 43.502 22.8654 43.318 22.8654C43.0169 22.8654 42.6991 22.8822 42.398 22.8989C42.3645 22.8989 42.3311 22.8989 42.2976 22.8989C41.9631 22.9156 41.6285 22.9491 41.294 22.9993C41.2271 23.016 41.1769 23.016 41.11 23.0327L28.7987 34.9927Z" fill="white"/>
<path d="M57.3355 39.3752V39.3585C57.3355 39.3417 57.3355 39.325 57.3522 39.2916V39.2748C57.3522 39.2414 57.369 39.2246 57.369 39.1912V39.1745V39.1577C57.369 39.141 57.369 39.141 57.369 39.141L57.3857 39.0574L57.4024 38.9905C57.4024 38.9236 57.4191 38.8734 57.4191 38.8232C57.4191 38.773 57.4359 38.7228 57.4359 38.6727C57.4359 38.6225 57.4526 38.589 57.4526 38.5556V38.5221C57.4526 38.4886 57.4526 38.4719 57.4526 38.4385V38.4217V38.405C57.4526 38.3716 57.4526 38.3381 57.4693 38.2879V38.2712C57.4693 38.221 57.486 38.1708 57.486 38.1039C57.486 38.0537 57.4861 37.9868 57.5028 37.9366V37.9199V37.9032V37.8865C57.5028 37.8363 57.5028 37.7861 57.5028 37.7527C57.5028 37.6857 57.5028 37.6356 57.5028 37.5686V37.5352C57.5028 37.485 57.5028 37.4516 57.5028 37.4014V37.3512C57.5028 37.3177 57.5028 37.2843 57.5028 37.2341C57.5028 37.2006 57.5028 37.1505 57.5028 37.117V37.0836C57.4693 34.3403 56.3653 31.7643 54.4082 29.8406C52.4511 27.917 49.8584 26.8465 47.0984 26.8465C46.4628 26.8465 45.8271 26.8966 45.225 27.0137C46.6468 27.8668 47.8846 29.021 48.8548 30.4094C50.2599 32.4166 50.9959 34.7752 50.9959 37.2508C50.9959 39.7097 50.2599 42.0683 48.8548 44.0923C47.4831 46.0494 45.5762 47.5548 43.3515 48.4079C41.9799 48.9432 40.5246 49.2108 39.0359 49.2108C36.8613 49.2108 34.7704 48.6254 32.9471 47.5548H32.9639C32.9806 47.5716 32.9806 47.5716 32.9973 47.5883L33.0308 47.6217C33.0475 47.6385 33.081 47.6719 33.0977 47.6886C33.1311 47.7221 33.1813 47.7723 33.2315 47.8057C33.265 47.8392 33.2984 47.8559 33.3151 47.8894C33.3653 47.9396 33.4155 47.9897 33.4824 48.0399C33.5159 48.0734 33.5493 48.1068 33.5828 48.1403L33.5995 48.157L33.6999 48.2407L33.7166 48.2574C33.7501 48.2741 33.7668 48.3076 33.8002 48.3243L33.817 48.341L33.8337 48.3577C33.8504 48.3745 33.8839 48.4079 33.9173 48.4246H33.9341H33.9508C33.9675 48.4414 34.001 48.4581 34.0177 48.4748C34.1013 48.5417 34.1682 48.5919 34.2519 48.6588C34.2686 48.6756 34.2853 48.6923 34.3021 48.6923C34.3188 48.709 34.3355 48.7257 34.369 48.7425C34.3857 48.7592 34.3857 48.7592 34.4024 48.7592L34.4191 48.7759C34.4526 48.7926 34.4861 48.8261 34.5195 48.8428L34.553 48.8596C34.5697 48.8763 34.5864 48.8763 34.6031 48.893C34.6199 48.9097 34.6533 48.9265 34.6701 48.9432L34.7035 48.9599C34.7704 49.0101 34.8206 49.0436 34.8875 49.0937C34.921 49.1105 34.9377 49.1272 34.9711 49.1439L34.9879 49.1607L35.0548 49.2108L35.1217 49.261C35.1551 49.2777 35.1886 49.3112 35.2388 49.3279C35.2722 49.3447 35.3224 49.3781 35.3559 49.3948H35.4395L35.6068 49.5454C35.6235 49.5621 35.657 49.5788 35.6904 49.5956C35.7406 49.629 35.7908 49.6625 35.841 49.6792C35.8744 49.6959 35.9246 49.7294 35.9581 49.7461C36.1755 49.8632 36.393 49.9803 36.6104 50.0807C36.6606 50.0974 36.7108 50.1308 36.761 50.1476C36.761 50.1476 36.7777 50.1476 36.7777 50.1643C36.8279 50.181 36.8613 50.2145 36.9115 50.2312C37.0453 50.2981 37.1791 50.365 37.3297 50.4152C37.3631 50.4319 37.3966 50.4487 37.4301 50.4654C37.4468 50.4654 37.4468 50.4821 37.4635 50.4821C37.5137 50.4988 37.5471 50.5156 37.5973 50.5323C37.7144 50.5825 37.8315 50.6159 37.9486 50.6661C37.9821 50.6828 38.0322 50.6996 38.0657 50.7163C38.2497 50.7832 38.4337 50.8501 38.601 50.9003C38.6344 50.917 38.6679 50.917 38.7013 50.9337C38.7515 50.9505 38.8017 50.9672 38.8686 50.9839L38.9188 51.0007C38.9857 51.0174 39.0526 51.0341 39.1028 51.0508C39.1362 51.0676 39.1697 51.0676 39.2031 51.0843C39.6046 51.1847 40.0061 51.285 40.4075 51.3519C40.4577 51.3686 40.5079 51.3687 40.5748 51.3854C40.6417 51.4021 40.6919 51.4021 40.7421 51.4188C40.7922 51.4356 40.8591 51.4356 40.9093 51.4356C41.5784 51.5359 42.2475 51.5694 42.9333 51.5694C43.6024 51.5694 44.2882 51.5192 44.9573 51.4356H44.9741C45.0242 51.4356 45.0744 51.4188 45.1413 51.4188L57.2017 39.3585C57.3355 39.3919 57.3355 39.3752 57.3355 39.3752Z" fill="white"/>
<defs>
<filter id="filter0_d_22_2579" x="0" y="0" width="86" height="86" filterUnits="userSpaceOnUse" color-interpolation-filters="sRGB">
<feFlood flood-opacity="0" result="BackgroundImageFix"/>
<feColorMatrix in="SourceAlpha" type="matrix" values="0 0 0 0 0 0 0 0 0 0 0 0 0 0 0 0 0 0 127 0" result="hardAlpha"/>
<feOffset dy="6"/>
<feGaussianBlur stdDeviation="10"/>
<feColorMatrix type="matrix" values="0 0 0 0 0.65 0 0 0 0 0.65 0 0 0 0 0.65 0 0 0 0.23 0"/>
<feBlend mode="normal" in2="BackgroundImageFix" result="effect1_dropShadow_22_2579"/>
<feBlend mode="normal" in="SourceGraphic" in2="effect1_dropShadow_22_2579" result="shape"/>
</filter>
<linearGradient id="paint0_linear_22_2579" x1="24.7099" y1="0.711149" x2="67.9585" y2="2.17599" gradientUnits="userSpaceOnUse">
<stop stop-color="#FF7F27"/>
<stop offset="1" stop-color="#FFA86C"/>
</linearGradient>
</defs>
</svg>